<?xml version="1.0" encoding="UTF-8" standalone="no"?>
<svg
   xmlns:dc="http://purl.org/dc/elements/1.1/"
   xmlns:cc="http://creativecommons.org/ns#"
   xmlns:rdf="http://www.w3.org/1999/02/22-rdf-syntax-ns#"
   xmlns:svg="http://www.w3.org/2000/svg"
   xmlns="http://www.w3.org/2000/svg"
   xmlns:sodipodi="http://sodipodi.sourceforge.net/DTD/sodipodi-0.dtd"
   xmlns:inkscape="http://www.inkscape.org/namespaces/inkscape"
   version="1.1"
   id="Layer_1"
   x="0px"
   y="0px"
   viewBox="0 0 32 32"
   xml:space="preserve"
   sodipodi:docname="basket_grey.svg"
   width="32"
   height="32"
   inkscape:version="1.0.2-2 (e86c870879, 2021-01-15)"><metadata
   id="metadata27"><rdf:RDF><cc:Work
       rdf:about=""><dc:format>image/svg+xml</dc:format><dc:type
         rdf:resource="http://purl.org/dc/dcmitype/StillImage" /><dc:title></dc:title></cc:Work></rdf:RDF></metadata><defs
   id="defs25">
	
	
	
	
	
	
	
	
</defs><sodipodi:namedview
   pagecolor="#ffffff"
   bordercolor="#666666"
   borderopacity="1"
   objecttolerance="10"
   gridtolerance="10"
   guidetolerance="10"
   inkscape:pageopacity="0"
   inkscape:pageshadow="2"
   inkscape:window-width="1920"
   inkscape:window-height="986"
   id="namedview23"
   showgrid="false"
   inkscape:zoom="9.4280904"
   inkscape:cx="25.222616"
   inkscape:cy="19.921626"
   inkscape:window-x="-11"
   inkscape:window-y="-11"
   inkscape:window-maximized="1"
   inkscape:current-layer="Layer_1"
   inkscape:document-rotation="0" />
<style
   type="text/css"
   id="style2">
	.st0{fill:#EA3D53;}
	.st1{fill:#D83945;}
	.st2{fill:#B12B3D;}
	.st3{fill:#333333;}
</style>
<path
   class="st0"
   d="M 30.376422,14.826521 H 1.6226548 c -0.4514369,0 -0.8153503,-0.363914 -0.8153503,-0.815351 v -2.598065 c 0,-0.451437 0.3639134,-0.815351 0.8153503,-0.815351 H 30.376422 c 0.451436,0 0.81535,0.363914 0.81535,0.815351 v 2.598065 c 0,0.451437 -0.363914,0.815351 -0.81535,0.815351 z"
   id="path4"
   style="fill:#ffdc4d;fill-opacity:1;stroke:#333333;stroke-width:1.05028;stroke-miterlimit:4;stroke-dasharray:none" /><path
   class="st1"
   d="M 26.295063,30.433339 H 5.7040129 c -0.7278268,0 -1.3497042,-0.520534 -1.4786861,-1.239148 L 2.2537452,14.826521 H 29.745331 l -1.971581,14.36767 c -0.124376,0.718614 -0.75086,1.239148 -1.478687,1.239148 z"
   id="path6"
   style="fill:#ffdc4d;fill-opacity:1;stroke:#333333;stroke-width:0.958152;stroke-miterlimit:4;stroke-dasharray:none" /><path
   class="st2"
   d="m 9.0897897,27.397656 v 0 c -0.7001878,0 -1.2713937,-0.566599 -1.2713937,-1.271393 v -7.269056 c 0,-0.700188 0.5665994,-1.271394 1.2713937,-1.271394 v 0 c 0.7001878,0 1.2713933,0.5666 1.2713933,1.271394 v 7.269056 c 0,0.700187 -0.566599,1.271393 -1.2713933,1.271393 z"
   id="path8"
   style="fill:#333333;fill-opacity:1;stroke:#000000;stroke-width:0.046065" /><path
   class="st2"
   d="m 13.908188,27.397656 v 0 c -0.700188,0 -1.271394,-0.566599 -1.271394,-1.271393 v -7.269056 c 0,-0.700188 0.566599,-1.271394 1.271394,-1.271394 v 0 c 0.700188,0 1.271393,0.5666 1.271393,1.271394 v 7.269056 c 0,0.700187 -0.566599,1.271393 -1.271393,1.271393 z"
   id="path10"
   style="fill:#333333;fill-opacity:1;stroke:#000000;stroke-width:0.046065" /><path
   class="st2"
   d="m 18.726586,27.397656 v 0 c -0.700188,0 -1.271394,-0.566599 -1.271394,-1.271393 v -7.269056 c 0,-0.700188 0.566599,-1.271394 1.271394,-1.271394 v 0 c 0.700187,0 1.271393,0.5666 1.271393,1.271394 v 7.269056 c 0,0.700187 -0.571206,1.271393 -1.271393,1.271393 z"
   id="path12"
   style="fill:#333333;fill-opacity:1;stroke:#000000;stroke-width:0.046065" /><path
   class="st2"
   d="m 23.544984,27.397656 v 0 c -0.700188,0 -1.271394,-0.566599 -1.271394,-1.271393 v -7.269056 c 0,-0.700188 0.566599,-1.271394 1.271394,-1.271394 v 0 c 0.700187,0 1.271393,0.5666 1.271393,1.271394 v 7.269056 c 0,0.700187 -0.571206,1.271393 -1.271393,1.271393 z"
   id="path14"
   style="fill:#333333;fill-opacity:1;stroke:#000000;stroke-width:0.046065" /><path
   class="st3"
   d="m 17.100491,13.965105 h -2.151235 c -0.290209,0 -0.52514,-0.234931 -0.52514,-0.525141 V 2.9832116 c 0,-0.2902094 0.234931,-0.5251409 0.52514,-0.5251409 h 2.151235 c 0.29021,0 0.525141,0.2349315 0.525141,0.5251409 V 13.439964 c 0,0.29021 -0.234931,0.525141 -0.525141,0.525141 z"
   id="path16"
   style="fill:#333333;stroke-width:0.046065" /><circle
   class="st0"
   cx="16.027178"
   cy="12.150146"
   r="0.91208678"
   id="circle18"
   style="fill:#ffdc4d;fill-opacity:1;stroke-width:0.046065" />
</svg>
