<?xml version="1.0" encoding="UTF-8" standalone="no"?>
<svg
   xmlns:dc="http://purl.org/dc/elements/1.1/"
   xmlns:cc="http://creativecommons.org/ns#"
   xmlns:rdf="http://www.w3.org/1999/02/22-rdf-syntax-ns#"
   xmlns:svg="http://www.w3.org/2000/svg"
   xmlns="http://www.w3.org/2000/svg"
   xmlns:sodipodi="http://sodipodi.sourceforge.net/DTD/sodipodi-0.dtd"
   xmlns:inkscape="http://www.inkscape.org/namespaces/inkscape"
   version="1.1"
   id="Layer_1"
   x="0px"
   y="0px"
   viewBox="0 0 32 32"
   xml:space="preserve"
   sodipodi:docname="basket.svg"
   width="32"
   height="32"
   inkscape:version="1.0.2-2 (e86c870879, 2021-01-15)"><metadata
   id="metadata27"><rdf:RDF><cc:Work
       rdf:about=""><dc:format>image/svg+xml</dc:format><dc:type
         rdf:resource="http://purl.org/dc/dcmitype/StillImage" /><dc:title></dc:title></cc:Work></rdf:RDF></metadata><defs
   id="defs25">
	
	
	
	
	
	
	
	
</defs><sodipodi:namedview
   pagecolor="#ffffff"
   bordercolor="#666666"
   borderopacity="1"
   objecttolerance="10"
   gridtolerance="10"
   guidetolerance="10"
   inkscape:pageopacity="0"
   inkscape:pageshadow="2"
   inkscape:window-width="1920"
   inkscape:window-height="986"
   id="namedview23"
   showgrid="false"
   inkscape:zoom="9.4280904"
   inkscape:cx="25.222616"
   inkscape:cy="19.921626"
   inkscape:window-x="-11"
   inkscape:window-y="-11"
   inkscape:window-maximized="1"
   inkscape:current-layer="Layer_1" />
<style
   type="text/css"
   id="style2">
	.st0{fill:#EA3D53;}
	.st1{fill:#D83945;}
	.st2{fill:#B12B3D;}
	.st3{fill:#333333;}
</style>
<g
   id="g886"
   transform="matrix(0.04606499,0,0,0.04606499,-6.111657,-5.663187)"><path
     class="st0"
     d="M 792.1,444.8 H 167.9 c -9.8,0 -17.7,-7.9 -17.7,-17.7 v -56.4 c 0,-9.8 7.9,-17.7 17.7,-17.7 h 624.2 c 9.8,0 17.7,7.9 17.7,17.7 v 56.4 c 0,9.8 -7.9,17.7 -17.7,17.7 z"
     id="path4"
     style="fill:#ffdc4d;fill-opacity:1;stroke:#000000;stroke-width:22.8;stroke-miterlimit:4;stroke-dasharray:none" /><path
     class="st1"
     d="m 703.5,783.6 h -447 c -15.8,0 -29.3,-11.3 -32.1,-26.9 L 181.6,444.8 h 596.8 l -42.8,311.9 c -2.7,15.6 -16.3,26.9 -32.1,26.9 z"
     id="path6"
     style="fill:#ffdc4d;fill-opacity:1;stroke:#000000;stroke-width:20.8;stroke-miterlimit:4;stroke-dasharray:none" /><path
     class="st2"
     d="m 330,717.7 v 0 c -15.2,0 -27.6,-12.3 -27.6,-27.6 V 532.3 c 0,-15.2 12.3,-27.6 27.6,-27.6 v 0 c 15.2,0 27.6,12.3 27.6,27.6 v 157.8 c 0,15.2 -12.3,27.6 -27.6,27.6 z"
     id="path8"
     style="fill:#000000;fill-opacity:1;stroke:#000000" /><path
     class="st2"
     d="m 434.6,717.7 v 0 C 419.4,717.7 407,705.4 407,690.1 V 532.3 c 0,-15.2 12.3,-27.6 27.6,-27.6 v 0 c 15.2,0 27.6,12.3 27.6,27.6 v 157.8 c 0,15.2 -12.3,27.6 -27.6,27.6 z"
     id="path10"
     style="fill:#000000;fill-opacity:1;stroke:#000000" /><path
     class="st2"
     d="m 539.2,717.7 v 0 c -15.2,0 -27.6,-12.3 -27.6,-27.6 V 532.3 c 0,-15.2 12.3,-27.6 27.6,-27.6 v 0 c 15.2,0 27.6,12.3 27.6,27.6 v 157.8 c 0,15.2 -12.4,27.6 -27.6,27.6 z"
     id="path12"
     style="fill:#000000;fill-opacity:1;stroke:#000000" /><path
     class="st2"
     d="m 643.8,717.7 v 0 c -15.2,0 -27.6,-12.3 -27.6,-27.6 V 532.3 c 0,-15.2 12.3,-27.6 27.6,-27.6 v 0 c 15.2,0 27.6,12.3 27.6,27.6 v 157.8 c 0,15.2 -12.4,27.6 -27.6,27.6 z"
     id="path14"
     style="fill:#000000;fill-opacity:1;stroke:#000000" /><path
     class="st3"
     d="m 503.9,426.1 h -46.7 c -6.3,0 -11.4,-5.1 -11.4,-11.4 v -227 c 0,-6.3 5.1,-11.4 11.4,-11.4 h 46.7 c 6.3,0 11.4,5.1 11.4,11.4 v 227 c 0,6.3 -5.1,11.4 -11.4,11.4 z"
     id="path16"
     style="fill:#000000" /><circle
     class="st0"
     cx="480.60001"
     cy="386.70001"
     r="19.799999"
     id="circle18"
     style="fill:#ffdc4d;fill-opacity:1" /></g>
</svg>
