<?xml version="1.0" encoding="UTF-8" standalone="no"?>
<svg
   xmlns:dc="http://purl.org/dc/elements/1.1/"
   xmlns:cc="http://creativecommons.org/ns#"
   xmlns:rdf="http://www.w3.org/1999/02/22-rdf-syntax-ns#"
   xmlns:svg="http://www.w3.org/2000/svg"
   xmlns="http://www.w3.org/2000/svg"
   xmlns:sodipodi="http://sodipodi.sourceforge.net/DTD/sodipodi-0.dtd"
   xmlns:inkscape="http://www.inkscape.org/namespaces/inkscape"
   version="1.1"
   x="0px"
   y="0px"
   width="32"
   height="32"
   viewBox="0 0 32 32"
   id="svg22"
   sodipodi:docname="Druplicon.svg"
   inkscape:version="1.0.2-2 (e86c870879, 2021-01-15)">
  <metadata
     id="metadata28">
    <rdf:RDF>
      <cc:Work
         rdf:about="">
        <dc:format>image/svg+xml</dc:format>
        <dc:type
           rdf:resource="http://purl.org/dc/dcmitype/StillImage" />
        <dc:title>Druplicon</dc:title>
      </cc:Work>
    </rdf:RDF>
  </metadata>
  <defs
     id="defs26" />
  <sodipodi:namedview
     pagecolor="#ffffff"
     bordercolor="#666666"
     borderopacity="1"
     objecttolerance="10"
     gridtolerance="10"
     guidetolerance="10"
     inkscape:pageopacity="0"
     inkscape:pageshadow="2"
     inkscape:window-width="1920"
     inkscape:window-height="986"
     id="namedview24"
     showgrid="false"
     inkscape:zoom="23.249844"
     inkscape:cx="13.82094"
     inkscape:cy="20.838908"
     inkscape:window-x="-11"
     inkscape:window-y="-11"
     inkscape:window-maximized="1"
     inkscape:current-layer="svg22" />
  <title
     id="title2">Druplicon</title>
  <g
     id="g859"
     transform="matrix(0.04390329,0,0,0.03911303,0.58611548,0.81672409)">
    <path
       style="fill:#ffffff;stroke:none"
       d="m 515.69646,141.48188 c -39.75,-24.75 -77.25,-34.5 -114.75,-59.249998 -23.25,-15.75 -55.5,-53.25 -82.5,-85.4999997 -5.25,51.7499997 -21,72.7499997 -39,87.7499997 -38.25,29.999998 -62.25,38.999998 -95.25,56.999998 -27.75,14.25 -178.5000037,104.25 -178.5000037,297.75 0,193.5 162.7500037,336 343.5000037,336 180.75,0 337.5,-131.25 337.5,-330 0,-198.75 -147,-288.75 -171,-303.75 z"
       id="path4" />
    <path
       style="fill:#0073ba;fill-opacity:1"
       d="m 449.25,610.5 c 12,0 24.75,0.75 33.75,6.75 9,6 14.25,19.5 17.25,27 3,7.5 0,12 -6,15 -5.25,3 -6,1.5 -11.25,-8.25 -5.25,-9.75 -9.75,-19.5 -36,-19.5 -26.25,0 -34.5,9 -47.25,19.5 -12.75,10.5 -17.25,14.25 -21.75,8.25 -4.5,-6 -3,-12 5.25,-19.5 8.25,-7.5 21.75,-19.5 34.5,-24.75 12.75,-5.25 19.5,-4.5 31.5,-4.5 z"
       id="path6" />
    <path
       style="fill:#0073ba;fill-opacity:1"
       d="m 324.75,696 c 15,12 37.5,21.75 85.5,21.75 48,0 81.75,-13.5 96.75,-24.75 6.75,-5.25 9.75,-0.75 10.5,2.25 0.75,3 2.25,7.5 -3,12.75 -3.75,3.75 -38.25,27.75 -78.75,31.5 -40.5,3.75 -95.25,6 -128.25,-24 -5.25,-5.25 -3.75,-12.75 0,-15.75 3.75,-3 6.75,-5.25 11.25,-5.25 4.5,0 3.75,0 6,1.5 z"
       id="path8" />
    <path
       style="fill:#0073ba;fill-opacity:1"
       d="m 316.5,15 c 10.5,30.75 9,46.5 9,53.25 0,6.75 -3.75,24.75 -15.75,33.75 -5.25,3.75 -6.75,6.75 -6.75,7.5 0,3 6.75,5.25 6.75,12 0,8.25 -3.75,24.75 -43.5,64.5 -39.75,39.75 -96.75,75 -141,96.75 C 81,304.5 60,303 54,292.5 48,282 56.25,258.75 84,228 111.75,197.25 199.5,153 199.5,153 L 309,76.5 315,47.25"
       id="path14" />
    <path
       style="fill:#0073ba;fill-opacity:1"
       d="m 316.5,14.25 c -6.75,49.5 -21.75,64.5 -42,80.25 -33.75,25.5 -66.75,41.25 -74.25,45 -19.5,9.75 -90,48.75 -126.75,105 -11.25,17.25 0,24 2.25,25.5 2.25,1.5 27.75,4.5 82.5,-28.5 54.75,-33 78.75,-52.5 109.5,-84.75 16.5,-17.25 18.75,-27 18.75,-31.5 0,-5.25 -3.75,-7.5 -9.75,-9 -3,-0.75 -3.75,-2.25 0,-4.5 C 280.5,109.5 296.25,102 300,99 c 3.75,-3 21.75,-15 22.5,-34.5 0.75,-19.5 -0.75,-33 -6,-50.25 z"
       id="path16" />
    <path
       style="fill:#0073ba;fill-opacity:1"
       d="m 147.75,559.5 c 0.75,-58.5 55.5,-113.25 124.5,-114 87.75,-0.75 148.5,87 192.75,86.25 37.5,-0.75 109.5,-74.25 144.75,-74.25 37.5,0 48,39 48,62.25 0,23.25 -7.5,65.25 -25.5,91.5 -18,26.25 -29.25,36 -50.25,34.5 C 555,643.5 501,559.5 466.5,558 c -43.5,-1.5 -138,90.75 -212.25,90.75 -45,0 -58.5,-6.75 -73.5,-16.5 -22.5,-15.75 -33.75,-39.75 -33,-72.75 z"
       id="path18" />
  </g>
  <path
     style="fill:none"
     d="m 599.25,235.5 c 15,45.75 0.75,87 -9,112.5 -9.75,25.5 -60,136.5 -331.5,258 C 208.5,628.5 198,638.25 141,639 93,639.75 68.25,623.25 52.5,609 l -7.437,0.266 C 105.763,712.467 220.46,778.5 343.5,778.5 524.25,778.5 681,647.25 681,448.5 681,339.354 636.668,263.012 592.72,213.87 c 1.524,5.706 3.634,12.798 6.53,21.63 z"
     id="path20" />
</svg>
