<?xml version="1.0" encoding="UTF-8" standalone="no"?>
<svg
   xmlns:dc="http://purl.org/dc/elements/1.1/"
   xmlns:cc="http://creativecommons.org/ns#"
   xmlns:rdf="http://www.w3.org/1999/02/22-rdf-syntax-ns#"
   xmlns:svg="http://www.w3.org/2000/svg"
   xmlns="http://www.w3.org/2000/svg"
   xmlns:sodipodi="http://sodipodi.sourceforge.net/DTD/sodipodi-0.dtd"
   xmlns:inkscape="http://www.inkscape.org/namespaces/inkscape"
   viewBox="0 0 32 32"
   version="1.1"
   id="svg4"
   sodipodi:docname="heart-pulse-solid.svg"
   width="32"
   height="32"
   inkscape:version="1.0.2-2 (e86c870879, 2021-01-15)">
  <metadata
     id="metadata10">
    <rdf:RDF>
      <cc:Work
         rdf:about="">
        <dc:format>image/svg+xml</dc:format>
        <dc:type
           rdf:resource="http://purl.org/dc/dcmitype/StillImage" />
        <dc:title></dc:title>
      </cc:Work>
    </rdf:RDF>
  </metadata>
  <defs
     id="defs8" />
  <sodipodi:namedview
     pagecolor="#ffffff"
     bordercolor="#666666"
     borderopacity="1"
     objecttolerance="10"
     gridtolerance="10"
     guidetolerance="10"
     inkscape:pageopacity="0"
     inkscape:pageshadow="2"
     inkscape:window-width="1920"
     inkscape:window-height="986"
     id="namedview6"
     showgrid="false"
     inkscape:zoom="12.5"
     inkscape:cx="33.275236"
     inkscape:cy="21.136918"
     inkscape:window-x="-11"
     inkscape:window-y="-11"
     inkscape:window-maximized="1"
     inkscape:current-layer="svg4" />
  <!--! Font Awesome Pro 6.1.1 by @fontawesome - https://fontawesome.com License - https://fontawesome.com/license (Commercial License) Copyright 2022 Fonticons, Inc. -->
  <path
     d="m 20.043745,15.745307 -3.102519,6.195078 c -0.374133,0.74714 -1.457555,0.723482 -1.800619,-0.03893 l -3.545824,-7.868363 -1.8709762,4.467297 -6.1079087,-0.003 10.9830289,11.344147 c 0.788238,0.813764 2.077063,0.813764 2.865923,0 L 28.447879,18.49744 21.468301,18.49775 Z M 28.934769,4.4796089 C 25.550203,1.5545347 20.373735,2.0825175 17.260631,5.292752 L 16.034068,6.5585383 14.807505,5.292752 C 11.694402,2.0825175 6.5204238,1.5545347 3.1339899,4.4796089 -0.44234398,7.5702972 -0.8489148,12.868797 1.8495231,16.504907 h 6.5375172 l 2.2370757,-5.370109 c 0.34294,-0.801931 1.473121,-0.816873 1.839222,-0.02334 l 3.624275,8.056711 3.0552,-6.101679 c 0.36635,-0.731577 1.41833,-0.731577 1.785054,0 l 1.722791,3.439976 H 30.2155 c 2.704042,-3.63766 2.293111,-8.9361604 -1.280731,-12.0268487 z"
     id="path2"
     style="stroke-width:0.062262;fill:#ffffff" />
</svg>
