<?xml version="1.0" encoding="UTF-8" standalone="no"?>
<svg
   xmlns:dc="http://purl.org/dc/elements/1.1/"
   xmlns:cc="http://creativecommons.org/ns#"
   xmlns:rdf="http://www.w3.org/1999/02/22-rdf-syntax-ns#"
   xmlns:svg="http://www.w3.org/2000/svg"
   xmlns="http://www.w3.org/2000/svg"
   xmlns:sodipodi="http://sodipodi.sourceforge.net/DTD/sodipodi-0.dtd"
   xmlns:inkscape="http://www.inkscape.org/namespaces/inkscape"
   viewBox="0 0 32 32"
   version="1.1"
   id="svg4"
   sodipodi:docname="house-solid.svg"
   inkscape:version="1.0.2-2 (e86c870879, 2021-01-15)"
   width="32"
   height="32">
  <metadata
     id="metadata10">
    <rdf:RDF>
      <cc:Work
         rdf:about="">
        <dc:format>image/svg+xml</dc:format>
        <dc:type
           rdf:resource="http://purl.org/dc/dcmitype/StillImage" />
        <dc:title></dc:title>
      </cc:Work>
    </rdf:RDF>
  </metadata>
  <defs
     id="defs8" />
  <sodipodi:namedview
     pagecolor="#ffffff"
     bordercolor="#666666"
     borderopacity="1"
     objecttolerance="10"
     gridtolerance="10"
     guidetolerance="10"
     inkscape:pageopacity="0"
     inkscape:pageshadow="2"
     inkscape:window-width="1920"
     inkscape:window-height="986"
     id="namedview6"
     showgrid="false"
     inkscape:zoom="1.5625"
     inkscape:cx="288"
     inkscape:cy="204.8"
     inkscape:window-x="-11"
     inkscape:window-y="-11"
     inkscape:window-maximized="1"
     inkscape:current-layer="svg4"
     inkscape:document-rotation="0" />
  <!--! Font Awesome Pro 6.1.1 by @fontawesome - https://fontawesome.com License - https://fontawesome.com/license (Commercial License) Copyright 2022 Fonticons, Inc. -->
  <path
     d="m 31.966314,14.184427 c 0,0.999294 -0.832746,1.782075 -1.776524,1.782075 h -1.776522 l 0.03886,8.888167 c 0,0.155447 -0.01111,0.299788 -0.02776,0.449682 v 0.899365 c 0,1.226912 -0.993743,2.220655 -2.220655,2.220655 h -0.888262 c -0.06107,0 -0.122134,-0.04997 -0.183204,-0.0056 -0.07772,-0.04441 -0.155444,0.0056 -0.233168,0.0056 h -3.136674 c -1.22691,0 -2.220653,-0.993743 -2.220653,-2.220655 v -4.885439 c 0,-0.982639 -0.793884,-1.776522 -1.776524,-1.776522 h -3.553046 c -0.982639,0 -1.776523,0.793883 -1.776523,1.776522 v 4.885439 c 0,1.226912 -0.993743,2.220655 -2.220654,2.220655 H 7.1116442 c -0.083274,0 -0.1665491,-0.0056 -0.2498236,-0.01111 -0.066619,0.0056 -0.1332393,0.01111 -0.1998588,0.01111 H 5.7737002 c -1.2263561,0 -2.2206539,-0.993743 -2.2206539,-2.220655 v -6.21783 c 0,-0.04997 0.00166,-0.105482 0.005,-0.155446 V 15.966502 H 1.779299 C 0.7783392,15.966502 0,15.183721 0,14.184427 0,13.68478 0.16677111,13.240649 0.55571864,12.852035 L 14.789555,0.44501905 C 15.17817,0.05562738 15.6223,0 16.010915,0 16.399529,0 16.84366,0.11125476 17.18231,0.38939167 L 31.355633,12.852035 c 0.444131,0.388614 0.671748,0.832745 0.610681,1.332392 z"
     id="path2"
     style="fill:#ffffff;stroke-width:0.0555164" />
</svg>
