<?xml version="1.0" encoding="UTF-8" standalone="no"?>
<svg
   xmlns:dc="http://purl.org/dc/elements/1.1/"
   xmlns:cc="http://creativecommons.org/ns#"
   xmlns:rdf="http://www.w3.org/1999/02/22-rdf-syntax-ns#"
   xmlns:svg="http://www.w3.org/2000/svg"
   xmlns="http://www.w3.org/2000/svg"
   xmlns:sodipodi="http://sodipodi.sourceforge.net/DTD/sodipodi-0.dtd"
   xmlns:inkscape="http://www.inkscape.org/namespaces/inkscape"
   viewBox="0 0 32 32"
   version="1.1"
   id="svg4"
   sodipodi:docname="map-pin-solid.svg"
   width="32"
   height="32"
   inkscape:version="1.0.2-2 (e86c870879, 2021-01-15)">
  <metadata
     id="metadata10">
    <rdf:RDF>
      <cc:Work
         rdf:about="">
        <dc:format>image/svg+xml</dc:format>
        <dc:type
           rdf:resource="http://purl.org/dc/dcmitype/StillImage" />
        <dc:title></dc:title>
      </cc:Work>
    </rdf:RDF>
  </metadata>
  <defs
     id="defs8" />
  <sodipodi:namedview
     pagecolor="#ffffff"
     bordercolor="#666666"
     borderopacity="1"
     objecttolerance="10"
     gridtolerance="10"
     guidetolerance="10"
     inkscape:pageopacity="0"
     inkscape:pageshadow="2"
     inkscape:window-width="1920"
     inkscape:window-height="986"
     id="namedview6"
     showgrid="false"
     inkscape:zoom="8.8388348"
     inkscape:cx="29.037457"
     inkscape:cy="17.231758"
     inkscape:window-x="-11"
     inkscape:window-y="-11"
     inkscape:window-maximized="1"
     inkscape:current-layer="svg4" />
  <!--! Font Awesome Pro 6.1.1 by @fontawesome - https://fontawesome.com License - https://fontawesome.com/license (Commercial License) Copyright 2022 Fonticons, Inc. -->
  <path
     d="m 24.235358,9.1767297 c 0,4.8924393 -3.969338,8.8617743 -8.861775,8.8617743 -4.894284,0 -8.8617743,-3.969335 -8.8617743,-8.8617743 0,-4.8942833 3.9674903,-8.86177469 8.8617743,-8.86177469 4.89244,0 8.861775,3.96749139 8.861775,8.86177469 z M 16.358225,4.2535212 c 0,-0.5440143 -0.443088,-0.9846415 -0.984642,-0.9846415 -3.317011,0 -5.9078493,2.6449949 -5.9078493,5.90785 0,0.5415525 0.440627,0.9846413 0.9846413,0.9846413 0.541553,0 0.984642,-0.4430888 0.984642,-0.9846413 0,-2.1723675 1.766201,-3.9385669 3.938566,-3.9385669 0.541554,0 0.984642,-0.4406266 0.984642,-0.9846416 z M 13.4043,29.854203 V 19.829322 c 0.640017,0.116925 1.298496,0.12308 1.969283,0.12308 0.670787,0 1.329267,-0.0061 1.969283,-0.12308 v 10.024881 c 0,1.089258 -0.880022,1.969283 -1.969283,1.969283 -1.089259,0 -1.969283,-0.880025 -1.969283,-1.969283 z"
     id="path2"
     style="stroke-width:0.0615401;fill:#ffffff" />
</svg>
